<svg width="2200" height="1300" viewBox="0 0 2200 1300" xmlns="http://www.w3.org/2000/svg">
<defs><linearGradient id="g" x1="0" y1="0" x2="1" y2="1"><stop offset="0" stop-color="#051016"/><stop offset=".45" stop-color="#07394a"/><stop offset="1" stop-color="#101010"/></linearGradient><radialGradient id="r" cx="50%" cy="46%" r="55%"><stop offset="0" stop-color="#28d5ff" stop-opacity=".55"/><stop offset=".5" stop-color="#c7122b" stop-opacity=".18"/><stop offset="1" stop-color="#000" stop-opacity="0"/></radialGradient><filter id="blur"><feGaussianBlur stdDeviation="30"/></filter></defs>
<rect width="2200" height="1300" fill="url(#g)"/><rect width="2200" height="1300" fill="url(#r)"/>
<g opacity=".18" stroke="#fff" stroke-width="4" fill="none"><path d="M0 816C230 745 391 895 619 818s375-77 579-3 438 12 615-48 300-23 387 15"/><path d="M0 917c213-61 388 37 590 9 232-32 318-131 546-66 226 64 416 91 636 9 218-81 338-29 428 12"/><path d="M0 1031c198-63 356-35 548 24 191 59 305-76 530-44 210 30 338 124 590 38 252-86 391-64 532 2"/></g>
<g transform="translate(530 500)"><path d="M0 210c165 19 533 26 760-28 58-14 106-52 130-100-107 46-214 66-314 61-52-3-111-13-178-31-68-18-128-24-181-14-72 13-132 48-217 112Z" fill="#020303"/><path d="M212 99c69-97 191-150 332-120 50 11 83 35 119 70 54 12 109 30 164 54-80 27-164 39-252 36-72-66-152-103-270-67L212 99Z" fill="#c7122b"/><path d="M172 190c114-62 218-89 328-62 67 16 135 38 231 33" fill="none" stroke="#fff" stroke-width="15" stroke-linecap="round" opacity=".9"/><path d="M380-30c37-64 89-86 159-76l58 61" fill="none" stroke="#111" stroke-width="28" stroke-linecap="round"/><path d="M546-98l116-24" stroke="#111" stroke-width="23" stroke-linecap="round"/></g>
<g opacity=".14" filter="url(#blur)"><ellipse cx="1120" cy="760" rx="770" ry="180" fill="#0fe0ff"/><ellipse cx="1280" cy="610" rx="520" ry="120" fill="#e11935"/></g>
<g opacity=".45" fill="#fff"><circle cx="190" cy="205" r="2"/><circle cx="370" cy="155" r="3"/><circle cx="1830" cy="250" r="2"/><circle cx="1610" cy="170" r="3"/><circle cx="1110" cy="90" r="2"/></g>
</svg>
