<svg width="900" height="520" viewBox="0 0 900 520" xmlns="http://www.w3.org/2000/svg"><rect width="900" height="520" rx="28" fill="#f5f5f3"/><path d="M130 330c132 13 404 18 579-21 44-10 76-33 95-64-78 28-154 41-228 39-38-1-82-7-133-18-51-10-97-14-137-8-56 8-101 31-176 72Z" fill="#111"/><path d="M280 248c53-70 144-111 251-93 38 7 62 24 89 49 41 9 83 22 124 40-59 18-121 26-186 24-54-48-114-76-203-52l-75 32Z" fill="#c7122b"/><path d="M239 315c86-43 164-63 247-45 51 11 102 26 174 23" fill="none" stroke="#fff" stroke-width="13" stroke-linecap="round"/><path d="M407 151c25-50 65-68 120-63l43 45" fill="none" stroke="#111" stroke-width="20" stroke-linecap="round"/><path d="M528 94l88-18" stroke="#111" stroke-width="18" stroke-linecap="round"/><path d="M172 371c91 20 247 31 427 14" stroke="#111" stroke-width="14" stroke-linecap="round" opacity=".25"/></svg>
