<svg width="2200" height="1300" viewBox="0 0 2200 1300" xmlns="http://www.w3.org/2000/svg"><defs><linearGradient id="g" x1="0" y1="0" x2="1" y2="1"><stop offset="0" stop-color="#130f0f"/><stop offset=".45" stop-color="#33251b"/><stop offset="1" stop-color="#050505"/></linearGradient><radialGradient id="r" cx="58%" cy="42%" r="45%"><stop offset="0" stop-color="#ff4141" stop-opacity=".36"/><stop offset="1" stop-color="#000" stop-opacity="0"/></radialGradient></defs><rect width="2200" height="1300" fill="url(#g)"/><rect width="2200" height="1300" fill="url(#r)"/><g opacity=".16" stroke="#fff" stroke-width="3" fill="none"><path d="M-30 880c392-208 680-168 1032-55 406 131 735 29 1231-203"/><path d="M-30 1015c351-149 633-109 977-28 441 103 788 63 1265-127"/><path d="M0 1158h2200"/></g><g transform="translate(610 500) scale(1.25)"><path d="M153 323h95l80-116h214l127 116h78" fill="none" stroke="#eee" stroke-width="25" stroke-linejoin="round"/><path d="M326 207l58-78h167l-9 78" fill="none" stroke="#eee" stroke-width="25" stroke-linejoin="round"/><path d="M384 129l-34 194" stroke="#eee" stroke-width="18"/><path d="M549 146l76 177" stroke="#eee" stroke-width="18"/><circle cx="270" cy="341" r="72" fill="#1a1614" stroke="#eee" stroke-width="26"/><circle cx="270" cy="341" r="25" fill="#eee"/><circle cx="658" cy="341" r="72" fill="#1a1614" stroke="#eee" stroke-width="26"/><circle cx="658" cy="341" r="25" fill="#eee"/><path d="M695 262l73-27 35 36" fill="none" stroke="#c7122b" stroke-width="18" stroke-linecap="round"/></g></svg>
